<?xml version="1.0" encoding="UTF-8"?>
<!DOCTYPE svg PUBLIC "-//W3C//DTD SVG 1.1//EN" "http://www.w3.org/Graphics/SVG/1.1/DTD/svg11.dtd">
<svg xmlns="http://www.w3.org/2000/svg" version="1.1" width="1080px" height="325px" style="shape-rendering:geometricPrecision; text-rendering:geometricPrecision; image-rendering:optimizeQuality; fill-rule:evenodd; clip-rule:evenodd" xmlns:xlink="http://www.w3.org/1999/xlink">
<g><path style="opacity:0.985" fill="#f7b16e" d="M 988.5,-0.5 C 992.5,-0.5 996.5,-0.5 1000.5,-0.5C 1020.73,8.66252 1026.56,23.6625 1018,44.5C 1007.96,58.8856 995.124,62.0522 979.5,54C 963.41,38.8769 962.41,22.8769 976.5,6C 980.2,3.09834 984.2,0.931677 988.5,-0.5 Z"/></g>
<g><path style="opacity:0.997" fill="#f5b06d" d="M 511.5,99.5 C 500.556,107.383 494.222,118.05 492.5,131.5C 490.96,136.065 490.293,140.898 490.5,146C 490.501,149.683 490.835,153.183 491.5,156.5C 492.423,160.064 492.756,163.731 492.5,167.5C 487.127,171.844 481.794,176.177 476.5,180.5C 462.404,143.058 448.571,105.392 435,67.5C 432.787,66.2405 430.287,65.5738 427.5,65.5C 424.713,65.5738 422.213,66.2405 420,67.5C 404.535,109.423 389.368,151.423 374.5,193.5C 373.596,194.209 373.263,195.209 373.5,196.5C 378.363,196.819 383.03,196.486 387.5,195.5C 392.117,181.978 397.117,168.645 402.5,155.5C 418.833,155.5 435.167,155.5 451.5,155.5C 451.229,157.38 451.896,158.713 453.5,159.5C 455.095,162.285 456.095,165.285 456.5,168.5C 456.166,171.491 457.166,173.824 459.5,175.5C 461.603,179.574 462.936,183.907 463.5,188.5C 422.626,209.399 379.293,222.566 333.5,228C 259.529,237.978 186.529,233.311 114.5,214C 83.4471,205.667 55.1138,192 29.5,173C 14.0263,160.851 4.02627,145.351 -0.5,126.5C -0.5,121.833 -0.5,117.167 -0.5,112.5C 3.94883,94.1765 13.6155,79.0099 28.5,67C 52.6563,48.9218 79.323,35.5885 108.5,27C 190.557,4.24643 273.557,0.246427 357.5,15C 398.854,21.893 437.521,35.893 473.5,57C 485.597,65.1311 496.097,74.9645 505,86.5C 507.705,90.5765 509.872,94.9099 511.5,99.5 Z"/></g>
<g><path style="opacity:0.966" fill="#f6b16d" d="M 1079.5,65.5 C 1079.5,66.8333 1079.5,68.1667 1079.5,69.5C 1075.8,81.5697 1068.13,85.0697 1056.5,80C 1049.5,72.8652 1048.67,65.0319 1054,56.5C 1066.33,48.4449 1074.83,51.4449 1079.5,65.5 Z"/></g>
<g><path style="opacity:0.926" fill="#010000" d="M 492.5,167.5 C 492.756,163.731 492.423,160.064 491.5,156.5C 491.379,148.142 491.712,139.809 492.5,131.5C 494.222,118.05 500.556,107.383 511.5,99.5C 524.614,93.8249 537.28,94.6583 549.5,102C 552.35,104.682 555.016,107.516 557.5,110.5C 557.38,92.9597 557.546,75.2931 558,57.5C 562.333,56.1667 566.667,56.1667 571,57.5C 571.5,103.832 571.667,150.165 571.5,196.5C 567.818,196.665 564.152,196.499 560.5,196C 559.557,191.854 558.557,187.687 557.5,183.5C 545.687,197.84 531.02,201.673 513.5,195C 502.511,188.848 495.511,179.682 492.5,167.5 Z M 506.5,151.5 C 513.73,140.248 517.063,127.915 516.5,114.5C 541.069,104.545 554.235,112.879 556,139.5C 557.81,152.507 555.81,164.841 550,176.5C 547.441,179.531 544.274,181.698 540.5,183C 533.751,183.877 527.084,183.544 520.5,182C 515.755,179.375 512.255,175.541 510,170.5C 507.755,164.366 506.589,158.032 506.5,151.5 Z"/></g>
<g><path style="opacity:0.939" fill="#000000" d="M 864.5,61.5 C 876.478,61.793 879.978,67.4597 875,78.5C 869.545,82.8963 864.878,82.2297 861,76.5C 859.461,70.6931 860.628,65.6931 864.5,61.5 Z"/></g>
<g><path style="opacity:1" fill="#020101" d="M 57.5,155.5 C 58.7425,171.088 66.7425,180.755 81.5,184.5C 87.6529,185.653 93.9863,185.82 100.5,185C 101.416,184.722 102.082,184.222 102.5,183.5C 111.907,180.426 117.907,174.093 120.5,164.5C 121.117,164.389 121.617,164.056 122,163.5C 122.333,161.167 122.667,158.833 123,156.5C 123.5,126.502 123.667,96.5019 123.5,66.5C 127.5,66.5 131.5,66.5 135.5,66.5C 135.5,97.8333 135.5,129.167 135.5,160.5C 133.038,177.799 123.705,189.466 107.5,195.5C 98.9072,197.006 90.2405,197.673 81.5,197.5C 65.0805,196.08 53.7472,187.747 47.5,172.5C 46.871,169.603 45.871,166.936 44.5,164.5C 44.5,164.167 44.5,163.833 44.5,163.5C 44.5,162.167 44.5,160.833 44.5,159.5C 44.5,128.5 44.5,97.5 44.5,66.5C 48.5,66.5 52.5,66.5 56.5,66.5C 56.1686,96.338 56.5019,126.005 57.5,155.5 Z"/></g>
<g><path style="opacity:1" fill="#523c24" d="M 136.5,65.5 C 131.968,65.1818 127.634,65.5151 123.5,66.5C 123.667,96.5019 123.5,126.502 123,156.5C 122.667,158.833 122.333,161.167 122,163.5C 121.617,164.056 121.117,164.389 120.5,164.5C 121.137,161.544 121.637,158.544 122,155.5C 122.5,125.168 122.667,94.8352 122.5,64.5C 127.363,64.1805 132.03,64.5139 136.5,65.5 Z"/></g>
<g><path style="opacity:1" fill="#1c140c" d="M 123.5,66.5 C 127.634,65.5151 131.968,65.1818 136.5,65.5C 136.832,97.3377 136.498,129.004 135.5,160.5C 135.5,129.167 135.5,97.8333 135.5,66.5C 131.5,66.5 127.5,66.5 123.5,66.5 Z"/></g>
<g><path style="opacity:1" fill="#040201" d="M 249.5,171.5 C 249.415,172.995 250.081,173.995 251.5,174.5C 252.808,170.685 252.808,167.019 251.5,163.5C 251.5,130.833 251.5,98.1667 251.5,65.5C 255.5,65.5 259.5,65.5 263.5,65.5C 263.5,108.833 263.5,152.167 263.5,195.5C 258.167,195.5 252.833,195.5 247.5,195.5C 226.359,159.224 204.692,123.224 182.5,87.5C 181.516,90.4281 181.183,93.4281 181.5,96.5C 181.5,129.5 181.5,162.5 181.5,195.5C 177.5,195.5 173.5,195.5 169.5,195.5C 169.5,152.167 169.5,108.833 169.5,65.5C 175.206,65.1712 180.872,65.5046 186.5,66.5C 207.763,101.362 228.763,136.362 249.5,171.5 Z"/></g>
<g><path style="opacity:1" fill="#0e0906" d="M 297.5,65.5 C 302.167,65.5 306.833,65.5 311.5,65.5C 311.5,109.167 311.5,152.833 311.5,196.5C 306.901,196.8 302.401,196.467 298,195.5C 297.5,152.168 297.333,108.835 297.5,65.5 Z"/></g>
<g><path style="opacity:0.996" fill="#080503" d="M 476.5,180.5 C 477.47,185.577 479.137,190.41 481.5,195C 481.167,195.333 480.833,195.667 480.5,196C 475.798,196.828 471.131,196.662 466.5,195.5C 465.688,193.055 464.688,190.722 463.5,188.5C 462.936,183.907 461.603,179.574 459.5,175.5C 459.065,172.843 458.065,170.509 456.5,168.5C 456.095,165.285 455.095,162.285 453.5,159.5C 452.962,157.883 452.629,156.216 452.5,154.5C 435.658,154.17 418.992,154.503 402.5,155.5C 397.117,168.645 392.117,181.978 387.5,195.5C 382.706,196.097 378.373,195.43 374.5,193.5C 389.368,151.423 404.535,109.423 420,67.5C 422.213,66.2405 424.713,65.5738 427.5,65.5C 430.287,65.5738 432.787,66.2405 435,67.5C 448.571,105.392 462.404,143.058 476.5,180.5 Z"/></g>
<g><path style="opacity:1" fill="#c89059" d="M 43.5,65.5 C 43.1685,97.0044 43.5018,128.338 44.5,159.5C 44.5,160.833 44.5,162.167 44.5,163.5C 43.7784,163.082 43.2784,162.416 43,161.5C 42.1693,129.331 42.3359,97.3307 43.5,65.5 Z"/></g>
<g><path style="opacity:1" fill="#21180f" d="M 43.5,65.5 C 48.1667,65.5 52.8333,65.5 57.5,65.5C 57.5,95.5 57.5,125.5 57.5,155.5C 56.5019,126.005 56.1686,96.338 56.5,66.5C 52.5,66.5 48.5,66.5 44.5,66.5C 44.5,97.5 44.5,128.5 44.5,159.5C 43.5018,128.338 43.1685,97.0044 43.5,65.5 Z"/></g>
<g><path style="opacity:1" fill="#382819" d="M 251.5,65.5 C 255.634,64.5151 259.968,64.1818 264.5,64.5C 264.5,108.5 264.5,152.5 264.5,196.5C 258.642,196.822 252.975,196.489 247.5,195.5C 252.833,195.5 258.167,195.5 263.5,195.5C 263.5,152.167 263.5,108.833 263.5,65.5C 259.5,65.5 255.5,65.5 251.5,65.5 Z"/></g>
<g><path style="opacity:0.959" fill="#000000" d="M 806.5,75.5 C 809.5,75.5 812.5,75.5 815.5,75.5C 815.5,82.8333 815.5,90.1667 815.5,97.5C 824.5,97.5 833.5,97.5 842.5,97.5C 842.5,101.5 842.5,105.5 842.5,109.5C 833.5,109.5 824.5,109.5 815.5,109.5C 815.043,131.886 815.543,154.22 817,176.5C 818.598,181.099 821.765,183.932 826.5,185C 831.62,185.709 836.62,185.209 841.5,183.5C 842.833,187.5 842.833,191.5 841.5,195.5C 830.794,199.729 820.46,198.896 810.5,193C 805.586,188.607 802.753,183.107 802,176.5C 801.667,154.5 801.333,132.5 801,110.5C 796.934,109.536 792.767,109.203 788.5,109.5C 788.187,106.753 788.52,104.086 789.5,101.5C 793.779,100.027 797.779,98.0272 801.5,95.5C 803.482,88.9044 805.149,82.2377 806.5,75.5 Z"/></g>
<g><path style="opacity:1" fill="#efac6a" d="M 446.5,138.5 C 434.211,140.48 421.544,141.147 408.5,140.5C 408.5,139.5 408.5,138.5 408.5,137.5C 415.285,119.379 421.618,101.045 427.5,82.5C 433.838,101.181 440.171,119.847 446.5,138.5 Z"/></g>
<g><path style="opacity:0.916" fill="#000000" d="M 631.5,95.5 C 640.832,95.2324 649.498,97.399 657.5,102C 663.351,107.535 666.517,114.369 667,122.5C 667.667,146.833 667.667,171.167 667,195.5C 663.927,196.617 660.76,196.784 657.5,196C 656.325,191.452 654.992,186.952 653.5,182.5C 639.981,198.792 623.648,202.292 604.5,193C 594.037,183.089 591.204,171.256 596,157.5C 601.179,147.646 609.346,141.812 620.5,140C 631.424,138.229 642.424,137.395 653.5,137.5C 655.781,113.943 645.448,104.776 622.5,110C 617.722,111.556 613.055,113.39 608.5,115.5C 605.808,111.787 604.808,107.787 605.5,103.5C 613.813,99.2617 622.48,96.595 631.5,95.5 Z M 634.5,149.5 C 640.5,149.5 646.5,149.5 652.5,149.5C 654.497,175.342 642.83,186.508 617.5,183C 610.554,178.777 608.054,172.61 610,164.5C 610.7,160.934 612.533,158.1 615.5,156C 621.595,152.764 627.928,150.597 634.5,149.5 Z"/></g>
<g><path style="opacity:0.91" fill="#000000" d="M 735.5,95.5 C 760.765,97.2661 774.265,110.933 776,136.5C 778.697,154.672 775.03,171.339 765,186.5C 749.987,200.307 733.82,201.807 716.5,191C 713.96,188.795 711.793,186.295 710,183.5C 709.5,184 709,184.5 708.5,185C 709.493,203.424 709.826,221.924 709.5,240.5C 704.901,240.8 700.401,240.467 696,239.5C 695.5,192.168 695.333,144.835 695.5,97.5C 699.5,97.5 703.5,97.5 707.5,97.5C 707.551,102.378 708.385,107.045 710,111.5C 716.127,102.174 724.627,96.8404 735.5,95.5 Z M 728.5,110.5 C 745.493,107.737 755.659,114.737 759,131.5C 763.008,147.795 760.674,163.129 752,177.5C 749.766,179.7 747.266,181.533 744.5,183C 737.751,183.877 731.084,183.544 724.5,182C 716.966,177.788 712.799,171.288 712,162.5C 709.789,150.422 710.122,138.422 713,126.5C 714.139,122.888 715.806,119.554 718,116.5C 721.351,114.079 724.851,112.079 728.5,110.5 Z"/></g>
<g><path style="opacity:0.92" fill="#000000" d="M 1022.5,95.5 C 1043.09,95.5954 1055.92,105.595 1061,125.5C 1062.32,133.439 1062.82,141.439 1062.5,149.5C 1041.83,149.333 1021.16,149.5 1000.5,150C 998.57,171.902 1008.57,183.402 1030.5,184.5C 1040.01,184.797 1049.01,182.797 1057.5,178.5C 1058.8,183.05 1058.8,187.55 1057.5,192C 1039.26,200.871 1021.26,200.538 1003.5,191C 992.225,181.955 986.059,170.121 985,155.5C 983.136,139.295 986.469,124.295 995,110.5C 1002.2,101.656 1011.36,96.6562 1022.5,95.5 Z M 1022.5,109.5 C 1033.06,109.025 1040.22,113.691 1044,123.5C 1044.88,127.7 1045.71,131.867 1046.5,136C 1031.16,136.833 1015.82,136.666 1000.5,135.5C 1001.85,121.506 1009.18,112.84 1022.5,109.5 Z"/></g>
<g><path style="opacity:0.966" fill="#000000" d="M 861.5,97.5 C 866.167,97.5 870.833,97.5 875.5,97.5C 875.667,130.168 875.5,162.835 875,195.5C 870.599,196.467 866.099,196.8 861.5,196.5C 861.5,163.5 861.5,130.5 861.5,97.5 Z"/></g>
<g><path style="opacity:0.954" fill="#000000" d="M 890.5,97.5 C 895.43,97.1975 900.263,97.5308 905,98.5C 914.553,126.158 923.886,153.825 933,181.5C 941.593,153.72 950.593,126.053 960,98.5C 962.411,97.8606 964.911,97.5272 967.5,97.5C 970.364,97.386 973.03,97.886 975.5,99C 963.833,131.333 952.167,163.667 940.5,196C 935.136,196.829 929.802,196.663 924.5,195.5C 912.558,163.006 901.225,130.339 890.5,97.5 Z"/></g>
<g><path style="opacity:1" fill="#63482c" d="M 181.5,96.5 C 182.498,129.662 182.832,162.996 182.5,196.5C 177.968,196.818 173.634,196.485 169.5,195.5C 173.5,195.5 177.5,195.5 181.5,195.5C 181.5,162.5 181.5,129.5 181.5,96.5 Z"/></g>
<g><path style="opacity:0.904" fill="#eaa968" d="M 516.5,114.5 C 517.063,127.915 513.73,140.248 506.5,151.5C 504.11,139.117 506.277,127.451 513,116.5C 513.816,115.177 514.983,114.511 516.5,114.5 Z"/></g>
<g><path style="opacity:1" fill="#936a41" d="M 492.5,131.5 C 491.712,139.809 491.379,148.142 491.5,156.5C 490.835,153.183 490.501,149.683 490.5,146C 490.293,140.898 490.96,136.065 492.5,131.5 Z"/></g>
<g><path style="opacity:1" fill="#543c25" d="M 408.5,137.5 C 408.5,138.5 408.5,139.5 408.5,140.5C 421.544,141.147 434.211,140.48 446.5,138.5C 447.404,139.209 447.737,140.209 447.5,141.5C 434.167,141.5 420.833,141.5 407.5,141.5C 407.232,139.901 407.566,138.568 408.5,137.5 Z"/></g>
<g><path style="opacity:1" fill="#c58e58" d="M 402.5,155.5 C 418.992,154.503 435.658,154.17 452.5,154.5C 452.629,156.216 452.962,157.883 453.5,159.5C 451.896,158.713 451.229,157.38 451.5,155.5C 435.167,155.5 418.833,155.5 402.5,155.5 Z"/></g>
<g><path style="opacity:1" fill="#9c7145" d="M 44.5,164.5 C 45.871,166.936 46.871,169.603 47.5,172.5C 45.3455,170.383 44.3455,167.716 44.5,164.5 Z"/></g>
<g><path style="opacity:1" fill="#a47649" d="M 456.5,168.5 C 458.065,170.509 459.065,172.843 459.5,175.5C 457.166,173.824 456.166,171.491 456.5,168.5 Z"/></g>
<g><path style="opacity:1" fill="#6d4f31" d="M 251.5,163.5 C 252.808,167.019 252.808,170.685 251.5,174.5C 250.081,173.995 249.415,172.995 249.5,171.5C 250.117,171.611 250.617,171.944 251,172.5C 251.498,169.518 251.665,166.518 251.5,163.5 Z"/></g>
<g><path style="opacity:1" fill="#4a3621" d="M 102.5,183.5 C 102.082,184.222 101.416,184.722 100.5,185C 93.9863,185.82 87.6529,185.653 81.5,184.5C 88.5352,184.674 95.5352,184.341 102.5,183.5 Z"/></g>
<g><path style="opacity:1" fill="#785635" d="M 374.5,193.5 C 378.373,195.43 382.706,196.097 387.5,195.5C 383.03,196.486 378.363,196.819 373.5,196.5C 373.263,195.209 373.596,194.209 374.5,193.5 Z"/></g>
<g><path style="opacity:1" fill="#7d5a38" d="M 107.5,195.5 C 107.389,196.117 107.056,196.617 106.5,197C 98.0249,198.474 89.6916,198.641 81.5,197.5C 90.2405,197.673 98.9072,197.006 107.5,195.5 Z"/></g>
<g><path style="opacity:0.92" fill="#000000" d="M 103.5,243.5 C 400.167,243.5 696.833,243.5 993.5,243.5C 993.5,245.5 993.5,247.5 993.5,249.5C 696.833,249.5 400.167,249.5 103.5,249.5C 103.5,247.5 103.5,245.5 103.5,243.5 Z"/></g>
<g><path style="opacity:0.841" fill="#000000" d="M 501.5,271.5 C 502.833,271.5 504.167,271.5 505.5,271.5C 505.5,284.833 505.5,298.167 505.5,311.5C 504.167,311.5 502.833,311.5 501.5,311.5C 501.5,298.167 501.5,284.833 501.5,271.5 Z"/></g>
<g><path style="opacity:0.726" fill="#000000" d="M 554.5,271.5 C 555.833,271.5 557.167,271.5 558.5,271.5C 558.334,276.511 558.501,281.511 559,286.5C 566.02,280.944 572.02,281.944 577,289.5C 579.702,297.08 578.535,303.913 573.5,310C 568.299,313.383 563.466,312.883 559,308.5C 558.092,310.439 556.592,311.439 554.5,311.5C 554.5,298.167 554.5,284.833 554.5,271.5 Z M 564.5,287.5 C 570.825,287.694 573.491,291.028 572.5,297.5C 573.185,303.018 571.019,306.684 566,308.5C 561.387,306.347 559.22,302.68 559.5,297.5C 559.467,293.134 561.134,289.8 564.5,287.5 Z"/></g>
<g><path style="opacity:0.726" fill="#000000" d="M 681.5,271.5 C 682.833,271.5 684.167,271.5 685.5,271.5C 685.5,284.833 685.5,298.167 685.5,311.5C 684.167,311.5 682.833,311.5 681.5,311.5C 681.649,310.448 681.483,309.448 681,308.5C 673.92,314.064 667.92,313.064 663,305.5C 660.453,297.945 661.62,291.112 666.5,285C 671.701,281.617 676.534,282.117 681,286.5C 681.499,281.511 681.666,276.511 681.5,271.5 Z M 672.5,287.5 C 674.582,287.472 676.416,288.139 678,289.5C 680.93,294.771 681.097,300.105 678.5,305.5C 675.39,309.257 672.224,309.257 669,305.5C 667.466,301.289 667.133,296.956 668,292.5C 669.025,290.313 670.525,288.646 672.5,287.5 Z"/></g>
<g><path style="opacity:0.891" fill="#000000" d="M 344.5,273.5 C 351.167,273.5 357.833,273.5 364.5,273.5C 364.5,274.833 364.5,276.167 364.5,277.5C 359.167,277.5 353.833,277.5 348.5,277.5C 348.5,281.5 348.5,285.5 348.5,289.5C 353.5,289.5 358.5,289.5 363.5,289.5C 363.5,290.833 363.5,292.167 363.5,293.5C 358.5,293.5 353.5,293.5 348.5,293.5C 348.5,298.167 348.5,302.833 348.5,307.5C 353.833,307.5 359.167,307.5 364.5,307.5C 364.5,308.833 364.5,310.167 364.5,311.5C 357.833,311.5 351.167,311.5 344.5,311.5C 344.5,298.833 344.5,286.167 344.5,273.5 Z"/></g>
<g><path style="opacity:0.81" fill="#000000" d="M 693.5,273.5 C 697.409,272.737 698.742,274.07 697.5,277.5C 694.08,278.753 692.746,277.419 693.5,273.5 Z"/></g>
<g><path style="opacity:0.763" fill="#000000" d="M 405.5,282.5 C 407.854,282.838 410.187,283.338 412.5,284C 414.333,284.5 415.5,285.667 416,287.5C 416.5,295.493 416.666,303.493 416.5,311.5C 415.5,311.5 414.5,311.5 413.5,311.5C 413.719,310.325 413.386,309.325 412.5,308.5C 407.54,313.112 402.373,313.445 397,309.5C 394.697,304.962 395.197,300.795 398.5,297C 402.982,295.204 407.649,294.37 412.5,294.5C 412.945,291.635 412.278,289.135 410.5,287C 406.796,286.196 403.296,286.696 400,288.5C 398.812,287.437 398.312,286.103 398.5,284.5C 401.067,284.279 403.401,283.612 405.5,282.5 Z M 410.5,298.5 C 412.153,303.518 410.32,306.852 405,308.5C 400.391,306.846 399.557,304.179 402.5,300.5C 405.311,299.92 407.977,299.254 410.5,298.5 Z"/></g>
<g><path style="opacity:0.829" fill="#000000" d="M 435.5,282.5 C 439.597,282.575 442.763,284.242 445,287.5C 449.822,282.103 455.155,281.437 461,285.5C 462.441,294.058 462.941,302.724 462.5,311.5C 461.167,311.5 459.833,311.5 458.5,311.5C 458.666,304.159 458.5,296.826 458,289.5C 454.458,285.592 450.791,285.592 447,289.5C 445.652,296.761 445.152,304.094 445.5,311.5C 444.167,311.5 442.833,311.5 441.5,311.5C 441.666,304.159 441.5,296.826 441,289.5C 438.365,286.175 435.198,285.675 431.5,288C 430.874,288.75 430.374,289.584 430,290.5C 428.661,297.426 428.161,304.426 428.5,311.5C 427.167,311.5 425.833,311.5 424.5,311.5C 424.5,302.167 424.5,292.833 424.5,283.5C 425.833,283.5 427.167,283.5 428.5,283.5C 428.351,284.552 428.517,285.552 429,286.5C 431.013,284.752 433.18,283.418 435.5,282.5 Z"/></g>
<g><path style="opacity:0.709" fill="#000000" d="M 474.5,324.5 C 473.167,324.5 471.833,324.5 470.5,324.5C 470.5,310.833 470.5,297.167 470.5,283.5C 471.833,283.5 473.167,283.5 474.5,283.5C 474.281,284.675 474.614,285.675 475.5,286.5C 482.365,281.004 488.198,282.004 493,289.5C 496.037,297.7 494.537,304.867 488.5,311C 483.49,313.112 478.99,312.279 475,308.5C 474.501,313.823 474.334,319.156 474.5,324.5 Z M 481.5,287.5 C 487.234,288.267 489.567,291.6 488.5,297.5C 489.306,302.554 487.473,306.221 483,308.5C 477.786,306.751 475.62,303.085 476.5,297.5C 475.598,292.634 477.265,289.301 481.5,287.5 Z"/></g>
<g><path style="opacity:0.79" fill="#000000" d="M 522.5,282.5 C 531.872,283.553 536.206,288.886 535.5,298.5C 529.167,298.5 522.833,298.5 516.5,298.5C 516.419,304.919 519.585,308.252 526,308.5C 528.526,308.435 530.859,307.768 533,306.5C 533.781,307.944 533.614,309.277 532.5,310.5C 523.813,314.042 517.313,311.709 513,303.5C 511.354,296.477 512.854,290.311 517.5,285C 519.315,284.243 520.981,283.41 522.5,282.5 Z M 522.5,287.5 C 527.167,287.5 529.5,289.833 529.5,294.5C 525.486,294.666 521.486,294.499 517.5,294C 518.269,291.074 519.935,288.907 522.5,287.5 Z"/></g>
<g><path style="opacity:0.792" fill="#000000" d="M 596.5,282.5 C 598.09,282.628 599.423,283.295 600.5,284.5C 598.208,286.258 595.541,287.424 592.5,288C 591.299,288.903 590.465,290.069 590,291.5C 588.671,298.092 588.171,304.759 588.5,311.5C 587.167,311.5 585.833,311.5 584.5,311.5C 584.5,302.167 584.5,292.833 584.5,283.5C 585.833,283.5 587.167,283.5 588.5,283.5C 588.343,284.873 588.51,286.207 589,287.5C 590.913,284.72 593.413,283.053 596.5,282.5 Z"/></g>
<g><path style="opacity:0.763" fill="#000000" d="M 613.5,282.5 C 618.408,282.245 621.908,284.245 624,288.5C 624.5,296.159 624.666,303.826 624.5,311.5C 623.5,311.5 622.5,311.5 621.5,311.5C 621.719,310.325 621.386,309.325 620.5,308.5C 616.287,312.189 611.621,313.023 606.5,311C 602.568,306.263 602.568,301.596 606.5,297C 610.951,295.026 615.618,294.193 620.5,294.5C 621.377,289.565 619.377,286.898 614.5,286.5C 612.161,286.669 609.994,287.336 608,288.5C 606.812,287.437 606.312,286.103 606.5,284.5C 609.067,284.279 611.401,283.612 613.5,282.5 Z M 618.5,298.5 C 620.089,305.246 617.422,308.246 610.5,307.5C 608.469,305.751 608.135,303.751 609.5,301.5C 612.425,300.047 615.425,299.047 618.5,298.5 Z"/></g>
<g><path style="opacity:0.817" fill="#000000" d="M 644.5,282.5 C 648.577,282.625 651.744,284.292 654,287.5C 655.401,295.415 655.901,303.415 655.5,311.5C 654.167,311.5 652.833,311.5 651.5,311.5C 651.666,304.825 651.5,298.158 651,291.5C 650.288,288.05 648.122,286.384 644.5,286.5C 641.426,286.45 639.259,287.783 638,290.5C 636.661,297.426 636.161,304.426 636.5,311.5C 635.167,311.5 633.833,311.5 632.5,311.5C 632.5,302.167 632.5,292.833 632.5,283.5C 633.833,283.5 635.167,283.5 636.5,283.5C 636.281,284.675 636.614,285.675 637.5,286.5C 639.525,284.436 641.858,283.102 644.5,282.5 Z"/></g>
<g><path style="opacity:0.844" fill="#000000" d="M 717.5,282.5 C 721.254,282.557 724.421,283.89 727,286.5C 728.406,294.749 728.906,303.083 728.5,311.5C 727.167,311.5 725.833,311.5 724.5,311.5C 724.666,304.492 724.5,297.492 724,290.5C 721.947,286.708 718.781,285.542 714.5,287C 712.951,288.214 711.785,289.714 711,291.5C 710.5,298.158 710.334,304.825 710.5,311.5C 709.167,311.5 707.833,311.5 706.5,311.5C 706.5,302.167 706.5,292.833 706.5,283.5C 707.5,283.5 708.5,283.5 709.5,283.5C 709.281,284.675 709.614,285.675 710.5,286.5C 712.765,284.873 715.099,283.539 717.5,282.5 Z"/></g>
<g><path style="opacity:0.744" fill="#000000" d="M 749.5,324.5 C 746.167,324.5 742.833,324.5 739.5,324.5C 734.018,322.812 732.185,319.145 734,313.5C 735.214,311.951 736.714,310.785 738.5,310C 735.595,306.626 735.928,303.626 739.5,301C 734.617,295.942 734.284,290.609 738.5,285C 740.588,283.97 742.755,283.137 745,282.5C 749.446,283.412 753.946,283.745 758.5,283.5C 758.5,284.5 758.5,285.5 758.5,286.5C 757.167,286.5 755.833,286.5 754.5,286.5C 756.933,297.084 752.6,302.417 741.5,302.5C 740.253,304.042 740.253,305.542 741.5,307C 745.167,307.333 748.833,307.667 752.5,308C 757.911,310.225 759.411,314.058 757,319.5C 754.83,321.823 752.33,323.49 749.5,324.5 Z M 742.5,287.5 C 749.628,287.706 751.294,290.873 747.5,297C 740.574,296.994 738.908,293.827 742.5,287.5 Z M 741.5,312.5 C 744.518,312.335 747.518,312.502 750.5,313C 753.309,316.089 752.643,318.422 748.5,320C 746.167,320.667 743.833,320.667 741.5,320C 737.581,317.507 737.581,315.007 741.5,312.5 Z"/></g>
<g><path style="opacity:0.825" fill="#000000" d="M 368.5,284.5 C 369.946,283.387 371.613,283.22 373.5,284C 375.543,287.253 377.71,290.42 380,293.5C 382.36,290.64 384.527,287.64 386.5,284.5C 388.074,283.369 389.741,283.202 391.5,284C 388.5,288.333 385.5,292.667 382.5,297C 385.624,301.414 388.624,305.914 391.5,310.5C 390.277,311.614 388.944,311.781 387.5,311C 384.877,307.588 382.377,304.088 380,300.5C 377.623,304.088 375.123,307.588 372.5,311C 371.167,311.667 369.833,311.667 368.5,311C 371.624,306.586 374.624,302.086 377.5,297.5C 374.832,292.85 371.832,288.517 368.5,284.5 Z"/></g>
<g><path style="opacity:0.837" fill="#000000" d="M 693.5,283.5 C 694.833,283.5 696.167,283.5 697.5,283.5C 697.5,292.833 697.5,302.167 697.5,311.5C 696.167,311.5 694.833,311.5 693.5,311.5C 693.5,302.167 693.5,292.833 693.5,283.5 Z"/></g>
</svg>
